<svg width="124" height="11" viewBox="0 0 124 11" fill="none" xmlns="http://www.w3.org/2000/svg">
<path fill-rule="evenodd" clip-rule="evenodd" d="M123.951 3.49852C123.445 2.20173 119.098 1.65572 106.032 1.20071C93.8399 0.768447 79.6467 -0.482843 54.8489 0.199676C35.894 0.72294 12.2924 2.816 12.2924 3.97628C12.2924 4.81806 13.2126 4.84081 21.9999 4.09003C30.1201 3.40752 34.2838 3.24826 39.3676 3.06626C18.9864 4.84081 14.6388 6.00109 3.78112 7.11587C-3.02792 7.82114 0.951686 9.84594 3.43607 9.64119C3.45907 9.64119 35.1349 7.09312 38.1254 7.22963C38.4014 7.25238 35.388 7.66189 31.4083 8.13965C20.2976 9.50469 22.437 11.7795 30.7642 10.733C58.7825 7.20664 85.1446 6.11461 105.457 7.63891C111.875 8.11667 112.588 8.11667 112.588 7.52515C112.588 6.47862 110.839 5.68258 108.102 5.52333C103.823 5.25032 87.3529 4.47657 79.8998 4.24906C79.3247 4.22631 79.6007 3.79428 80.1068 3.74878C83.1433 3.45302 107.251 3.6803 116.728 3.9988C123.698 4.22631 124.205 4.20379 123.951 3.49852Z" fill="#3454D1"/>
</svg>
