<svg width="128" height="123" viewBox="0 0 128 123" fill="none" xmlns="http://www.w3.org/2000/svg">
<path d="M74.9032 55.3297C76.8697 59.2639 78.0229 59.7229 81.5489 58.2148C90.7708 54.215 77.1411 35.1996 67.0378 37.9536C63.8508 38.806 58.2903 41.5599 65.0711 44.7729C69.0718 46.6088 72.3265 50.1497 74.9032 55.3297Z" fill="white"/>
<path d="M68.4836 85.0892C53.3857 77.6141 50.5257 82.82 50.5257 85.8234C50.5257 88.4263 48.2643 89.4942 42.5444 82.4195C32.5013 70.0054 31.371 66.8686 36.6253 65.7339C46.8015 63.5314 47.2003 55.9896 38.0218 39.571C31.2377 27.4239 23.589 22.3515 15.7407 24.7542C9.35567 26.6898 2.10599 37.3685 0.443222 47.3131C-1.35257 58.1253 2.77123 64.1989 4.56702 68.5371C10.9521 83.6876 33.0335 111.119 43.0101 116.191C65.2247 127.537 89.501 124.2 88.1043 109.917C87.1731 100.173 81.3867 91.4964 68.4836 85.0892ZM66.6214 114.122C38.2879 113.655 8.09196 73.0756 8.09196 51.1841C8.09196 38.9703 16.8053 23.6196 20.1308 29.6931C20.1973 29.7599 35.0952 54.6547 36.2259 59.0597C36.5584 60.3946 36.226 60.7283 33.3661 61.6627C24.7197 64.5326 23.5894 69.0043 28.7772 79.6831C37.3571 97.4365 55.3145 103.577 56.5117 89.2939C57.1768 81.7521 61.9657 83.6876 73.2725 98.5711C82.9166 111.386 80.0566 114.322 66.6214 114.122Z" fill="white"/>
<path d="M63.6745 20.5538C57.1807 23.7326 57.4481 25.2558 64.6113 26.5141C81.4817 29.4279 95.6745 46.1828 95.6745 63.2025C95.6745 70.8184 101.901 73.7322 105.984 60.5535C111.608 42.3417 80.0762 12.4744 63.6745 20.5538Z" fill="white"/>
<path d="M68.0129 1.36963C60.2075 4.17468 60.8748 7.31366 69.4807 7.91474C97.9004 9.91835 120.716 40.9743 115.179 70.0933C113.911 76.9056 119.849 79.911 125.452 68.023C138.728 39.9057 96.6994 -8.78198 68.0129 1.36963Z" fill="white"/>
</svg>
