<svg width="209" height="65" viewBox="0 0 209 65" fill="none" xmlns="http://www.w3.org/2000/svg">
<path d="M141.3 10.7621C155.482 16.3206 112.561 31.0305 98.0584 35.4099C71.0325 43.6073 76.9193 45.2361 86.8199 42.3727C90.352 41.362 100.734 38.4985 109.832 36.0281C137.5 28.5044 144.885 25.6404 149.755 20.8118C160.78 9.86318 129.419 -2.76982 101.805 1.44118C65.1992 7.05585 14.2517 28.0553 3.0132 36.8703C-2.39195 41.1374 -1.58928 44.1688 14.3051 37.0943C71.5142 11.4353 118.234 1.72247 141.3 10.7621Z" fill="#FFA1A1"/>
<path d="M203.807 14.8041C200.436 16.1516 193.585 19.0712 186.093 22.4962C111.384 56.6333 52.6763 70.2214 55.7803 52.9282C57.1717 45.0115 77.0799 28.3921 91.2618 23.1705C96.2388 21.3176 92.9208 19.3519 88.5324 20.4187C79.8092 22.5523 61.2925 33.0523 54.6029 40.5198C45.7728 50.4577 47.7529 59.4412 59.6335 63.4276C73.0661 67.9194 117.271 59.2722 146.491 46.3585C154.518 42.8212 195.084 22.8897 205.841 17.2751C211.513 14.4116 206.429 13.7934 203.807 14.8041Z" fill="#FFA1A1"/>
</svg>
